<?xml version="1.0" encoding="utf-8"?>
<!-- Generator: Adobe Illustrator 16.0.3, SVG Export Plug-In . SVG Version: 6.00 Build 0)  -->
<!DOCTYPE svg PUBLIC "-//W3C//DTD SVG 1.1//EN" "http://www.w3.org/Graphics/SVG/1.1/DTD/svg11.dtd">
<svg version="1.1" id="Layer_1" xmlns="http://www.w3.org/2000/svg" xmlns:xlink="http://www.w3.org/1999/xlink" x="0px" y="0px"
	 width="470px" height="232px" viewBox="74.085 40.167 470 232" enable-background="new 74.085 40.167 470 232"
	 xml:space="preserve">
<g>
	<g>
		<g>
			<path fill="#FFFFFF" d="M238.16,97.109c0.654,0.436,1.265,0.829,1.92,1.265c0.043,2.095,0.131,4.146,0.175,6.24
				c-6.328,2.662-11.606-4.014-8.902-10.297c1.309-3.097,5.629-5.454,9.294-2.879c1.004,0.698,1.483,2.182,1.745,3.665
				c0.262-1.789,0.524-3.578,0.786-5.411c0.087-0.61,0.131-1.221,0.218-1.833c-0.479,0.524-1.004,1.091-1.527,1.614
				c-0.786-0.393-1.702-0.523-2.706-0.742c-5.279-0.959-9.25,2.051-10.996,5.019c-0.567,0.959-0.784,2.094-1.004,3.403
				c-0.305,1.745,0.436,3.273,0.874,4.364c1.789,4.014,7.94,7.068,13.351,4.451c0.611,0.654,1.222,1.309,1.789,2.006l0.043,0.044
				c0.043-3.186,0.043-6.414,0.087-9.643c0.655-0.437,1.265-0.873,1.92-1.354h-7.069L238.16,97.109L238.16,97.109z"/>
			<path fill="#FFFFFF" d="M194.658,107.8c-1.309-0.524-2.574-1.048-3.883-1.614c-1.528-1.833-3.055-3.709-4.538-5.542
				c-1.789-2.138-3.534-4.233-5.323-6.371c2.182-1.745,4.364-3.49,6.5-5.235c1.048-0.567,2.139-1.135,3.186-1.658
				c0,0,0.044,0,0.087-0.043c-2.923-0.043-5.891-0.131-8.814-0.175c0.655,0.35,1.309,0.654,1.964,0.96
				c0,0.043,0.044,0.043,0.044,0.087c-2.051,2.05-4.058,4.058-6.108,6.108v-6.065c0.786-0.567,1.57-1.091,2.356-1.658h0.087
				c-2.967,0-5.891-0.044-8.858-0.044c0.786,0.479,1.527,1.004,2.313,1.484c0.305,0.699,0.087,4.015,0.087,5.062
				c-0.043,4.102-0.043,8.203-0.087,12.304c-0.829,0.567-1.658,1.135-2.487,1.703c0,0.043-0.043,0.043-0.043,0.086
				c3.229-0.086,6.457-0.218,9.687-0.305v-0.044c-1.004-0.479-2.008-0.959-3.055-1.439c0-2.966-0.044-5.934-0.044-8.901h0.044
				c2.661,3.404,5.279,6.806,7.941,10.21c-0.786,0.479-1.571,0.96-2.356,1.483C187.153,108.192,190.906,108.018,194.658,107.8
				L194.658,107.8z M183.4,108.367L183.4,108.367c-0.043,0-0.043,0-0.087,0H183.4z"/>
			<path fill="#FFFFFF" d="M198.323,103.654V88.338c0.698-0.479,1.396-0.959,2.138-1.439c0-0.044,0-0.044,0.044-0.087h-7.897
				c0.698,0.436,1.396,0.916,2.094,1.352v15.446c-0.742,0.523-1.528,1.091-2.269,1.614c0,0.043-0.043,0.043-0.043,0.087
				c2.923-0.087,5.802-0.175,8.727-0.262v-0.043C200.155,104.571,199.24,104.091,198.323,103.654"/>
			<path fill="#FFFFFF" d="M152.597,80.181c-4.32-0.087-8.684-0.132-13.003-0.219c-1.789,5.061-3.578,10.079-5.367,15.14v0.087
				h-0.087c-1.746-3.927-3.491-7.853-5.236-11.825c-0.392-0.916-1.178-3.621-1.876-4.101c-3.795,0.087-7.592,0.174-11.432,0.262
				c1.745,0.917,3.49,1.789,5.279,2.706c-0.523,8.072-1.047,16.188-1.614,24.303c-1.178,0.743-2.356,1.483-3.49,2.182
				c-0.044,0.044-0.044,0.087-0.044,0.131h12.435c-1.658-0.829-3.272-1.702-4.93-2.531c0.349-6.239,0.698-12.522,1.047-18.761h0.044
				c2.967,5.672,5.977,11.387,8.945,17.061h0.043c2.662-6.109,5.368-12.217,8.029-18.325c0-0.044,0.043-0.088,0.043-0.132
				c0.698,6.981,1.353,13.963,2.051,20.9c-1.614,0.829-3.272,1.658-4.887,2.487c-0.043,0.044-0.043,0.087-0.043,0.087
				c4.668,0.087,9.337,0.131,14.006,0.218c-1.178-0.743-2.356-1.483-3.534-2.226c-0.479-8.116-1.003-16.275-1.483-24.391
				c1.658-1.003,3.316-2.007,5.018-3.011C152.553,80.267,152.553,80.223,152.597,80.181"/>
			<path fill="#FFFFFF" d="M219.093,89.212L219.093,89.212c1.047,0.567,2.05,1.09,3.097,1.571c0.436,0.959-0.087,3.142,0.087,4.364
				c0.044,3.36,0.088,6.719,0.131,10.036c-4.495-6.065-8.945-12.129-13.439-18.238c-0.131-0.131-0.654-0.087-0.917-0.087
				c-2.312,0.087-4.668,0.13-6.981,0.175c1.309,0.784,2.662,1.614,3.97,2.399c0.479,1.047-0.13,4.015,0.087,5.41
				c0,4.451,0.044,8.901,0.044,13.352c-0.917,0.568-1.833,1.135-2.706,1.659c-0.043,0.043-0.087,0.086-0.087,0.13h9.992v-0.043
				c-1.309-0.654-2.661-1.309-4.015-1.963c-0.087-4.842-0.218-9.686-0.305-14.486c5.498,7.287,10.996,14.574,16.494,21.816
				c0.305-8.071,0.654-16.144,0.96-24.216c1.003-0.611,2.007-1.222,3.011-1.833c0-0.043,0.044-0.043,0.044-0.087L219.093,89.212
				L219.093,89.212z"/>
			<path fill="#FFFFFF" d="M158.094,98.113c0.523-2.006,1.047-4.014,1.614-6.064c0.349,0.305,0.48,1.222,0.611,1.658
				c0.524,1.439,1.004,2.923,1.527,4.364h-3.752L158.094,98.113L158.094,98.113z M169.177,106.971
				c-0.524-1.396-1.047-2.793-1.572-4.232c-1.658-4.364-3.315-8.684-4.974-13.003c0.524-0.305,1.091-0.654,1.614-0.959
				c0-0.044,0.044-0.044,0.044-0.088h-3.665c-1.178,0-2.356,0.044-3.535,0.044c0.568,0.479,1.134,0.959,1.702,1.439
				c0.087,0.568-1.178,3.491-1.396,4.19c-1.091,3.098-2.182,6.239-3.273,9.337c-0.828,2.138-0.479,3.185-2.836,3.927
				c0,0.044,0,0.044-0.043,0.088c2.269,0.043,4.538,0.13,6.807,0.174c-0.83-0.524-1.614-1.004-2.4-1.527
				c-0.087-0.567,0.393-1.396,0.524-1.92c0.479-1.614,0.96-3.229,1.44-4.843c1.658,0.175,3.272,0.305,4.887,0.479
				c0.828,2.356,1.658,4.713,2.487,7.026c-0.611,0.436-1.222,0.916-1.833,1.352c-0.043,0.043-0.043,0.086-0.087,0.13
				c2.923,0.043,5.803,0.043,8.726,0.087v-0.044C170.922,108.061,170.049,107.538,169.177,106.971"/>
			<path fill="#FFFFFF" d="M210.235,67.09c-0.742,1.613-1.527,3.186-2.312,4.799c-2.138,0.175-4.232,0.35-6.371,0.524v-7.504
				c0.699,0.043,1.397,0.13,2.095,0.174c0.524,0.874,1.091,1.789,1.658,2.706v0.043c0-2.269,0.044-4.582,0.044-6.851
				c-0.479,0.742-0.959,1.44-1.483,2.138c-0.786,0.044-1.57,0.087-2.356,0.131v-6.72c1.571,0.174,3.186,0.393,4.756,0.567
				c0.698,0.088,1.353,0.175,2.05,0.263c0.393,0.261,1.484,2.661,1.658,3.272c0.043,0,0.043,0.043,0.087,0.043
				c0-2.661-0.044-5.323-0.044-7.985c-0.392,0.698-0.742,1.396-1.134,2.095c-4.495,0-8.944,0.044-13.439,0.044
				c0.742,0.479,1.484,0.959,2.226,1.395c0.305,0.741,0.043,3.753,0.043,4.756c0,3.883-0.043,7.766-0.043,11.65
				c-0.829,0.567-1.614,1.09-2.4,1.657c0,0.044-0.043,0.044-0.043,0.087c4.276-0.043,8.508-0.087,12.785-0.087
				c0.305,0.525,0.654,1.091,0.959,1.658c0,0.044,0.044,0.044,0.044,0.087C209.406,73.024,209.842,70.057,210.235,67.09
				L210.235,67.09z"/>
			<path fill="#FFFFFF" d="M195.182,76.166c-1.003-0.479-1.964-0.96-2.968-1.44V57.752c0.786-0.523,1.528-1.09,2.313-1.614h0.087
				c-2.923,0-5.847-0.043-8.77-0.043v0.043c0.786,0.48,1.571,1.004,2.4,1.483c0,1.963-0.044,3.927-0.044,5.891
				c-2.356-0.044-4.712-0.044-7.068-0.087v-7.026c0.959-0.567,1.875-1.134,2.792-1.702h0.087c-3.097-0.043-6.195-0.087-9.293-0.131
				c0.785,0.61,1.527,1.178,2.312,1.789c0.043,5.76,0.13,11.476,0.175,17.235c-0.786,0.568-1.528,1.091-2.269,1.658
				c0,0.043-0.044,0.043-0.044,0.086h9.032v-0.043c-0.917-0.611-1.833-1.177-2.749-1.789c-0.261-0.568-0.087-1.702-0.087-2.443
				v-5.542c2.356-0.131,4.712-0.261,7.069-0.348h0.043c0,3.185-0.043,6.37-0.043,9.555c-0.829,0.568-1.658,1.134-2.443,1.745
				c3.141-0.086,6.326-0.13,9.468-0.218C195.138,76.209,195.182,76.166,195.182,76.166 M185.669,76.472L185.669,76.472
				c-0.043,0-0.043,0-0.087,0H185.669z"/>
			<path fill="#FFFFFF" d="M179.038,52.691C179.038,52.648,179.038,52.648,179.038,52.691c0,0.043,0,0.087,0,0.132V52.691z
				 M177.424,42.875h-23.256c-0.261-0.699-0.524-1.397-0.829-2.094c-0.262,4.013-0.567,8.028-0.829,11.998h0.044
				c1.44-2.312,2.879-4.582,4.275-6.894c0.873-0.394,5.018-0.568,6.283-0.524c-0.044,9.032-0.087,18.02-0.131,27.051
				c-1.134,0.873-2.312,1.702-3.447,2.618c-0.043,0.043-0.087,0.087-0.131,0.13c4.668-0.13,9.294-0.305,13.919-0.436v-0.044
				c-1.439-0.741-2.88-1.483-4.363-2.269V45.447c0.83-0.393,4.712,0.262,6.064,0.262c1.31,2.313,2.618,4.626,3.884,6.938
				c-0.218-3.927-0.436-7.898-0.654-11.824C178.078,41.521,177.728,42.175,177.424,42.875"/>
			<path fill="#FFFFFF" d="M297.239,87.249c-0.349,0.698-0.699,1.396-1.047,2.094c-4.451,0-8.858,0.044-13.308,0.044v0.043
				c0.742,0.479,1.484,0.916,2.226,1.396c0,5.541-0.044,11.126-0.044,16.668c-0.786,0.524-1.527,1.047-2.312,1.614
				c-0.044,0.043-0.087,0.087-0.131,0.131c3.186-0.088,6.414-0.175,9.599-0.262v-0.043c-1.091-0.524-2.226-1.092-3.36-1.615v-7.941
				c0.698,0.043,1.396,0.131,2.094,0.175c0.567,0.916,1.091,1.789,1.614,2.706c0.043,0.043,0.043,0.043,0.087,0.043v-6.807
				c-0.48,0.742-0.96,1.439-1.439,2.139c-0.785,0.043-1.571,0.087-2.356,0.13v-6.631c2.27,0.262,4.494,0.524,6.763,0.786
				c0.524,1.047,1.091,2.137,1.614,3.186v-7.856H297.239z"/>
			<path fill="#FFFFFF" d="M276.382,100.906c-1.265,3.272-3.403,5.017-7.374,5.672c-1.57,0.261-3.186-0.524-4.101-1.047
				c-3.055-1.789-5.673-6.283-4.145-11.301c0.829-2.75,2.574-4.887,5.104-5.934c0.742-0.306,1.615-0.218,2.444-0.523
				C274.637,87.772,278.87,94.448,276.382,100.906 M280.222,91.917c-2.356-3.971-6.108-6.677-12.523-6.545
				c-0.436,0.043-0.828,0.087-1.265,0.13c-0.786,0.22-1.614,0.394-2.4,0.568c-3.708,1.309-6.501,3.753-7.941,7.374
				c-2.922,7.505,3.23,13.395,8.509,15.011c1.353,0.392,3.447,0.785,5.192,0.479c5.061-0.874,8.945-2.967,10.733-7.069
				c0.349-0.829,0.654-1.701,0.874-2.705C282.054,96.498,281.182,93.576,280.222,91.917"/>
		</g>
		<g>
			<g>
				<path fill="#FFFFFF" d="M350.166,101.472c0.174,0.349,0.523,0.524,0.697,0.873c0.174,0.35,0.437,0.653,0.61,0.96
					c2.705,4.058,5.412,8.16,8.116,12.217c0.961,1.439,1.963,2.879,2.923,4.275c0.131,0.175,0.218,0.349,0.35,0.524
					c0.742,1.004,1.09,2.182,1.134,3.447c0,0.611,0,1.266,0.044,1.876c0.044,2.923,0.087,5.803,0.176,8.727
					c0.085,3.273,0,6.588-0.218,9.86c-0.132,2.226-0.306,4.451-0.611,6.676c-0.35,2.531-0.699,5.105-1.004,7.637
					c-0.044,0.479-0.088,1.004-0.088,1.527c0,0.304,0.175,0.479,0.436,0.565c0.307,0.132,0.654,0.22,0.961,0.264
					c0.566,0.087,1.178,0.175,1.744,0.261c1.004,0.131,2.008,0.176,3.012,0.305c0.566,0.088,1.178,0.219,1.745,0.351
					c0.261,0.043,0.479,0.174,0.742,0.218c0.262,0.086,0.479-0.045,0.565-0.35c0.046-0.219,0.088-0.393,0.133-0.609
					c0.131-0.7,0.217-1.397,0.348-2.141c0.045-0.393,0.132-0.741,0.22-1.133c0.13-0.525,0.392-0.917,0.784-1.266
					c0.219-0.173,0.479-0.348,0.697-0.523c2.313-1.657,4.67-3.186,7.2-4.495c3.011-1.571,5.891-3.272,8.726-5.105
					c0.436-0.262,0.874-0.523,1.31-0.785c0.742-0.436,1.483-0.524,2.312-0.219c0.306,0.131,0.61,0.263,0.873,0.524
					c0.348,0.35,0.653,0.654,0.96,1.004c1.789,1.92,3.621,3.796,5.498,5.584c0.611,0.568,1.178,1.177,1.746,1.833
					c0.828,0.959,1.57,1.961,2.355,2.967c0.785,1.002,1.178,2.094,1.223,3.401c0.086,2.271,0.219,4.538,0.303,6.808
					c0.133,2.617,0.264,5.235,0.395,7.854c0.087,2.181,0.175,4.362,0.218,6.589c0.087,7.896,0.087,15.793,0.131,23.646
					c0,0.654,0,1.354,0,2.008c0,0.96-0.393,1.703-1.134,2.269c-1.178,0.918-2.443,1.833-3.709,2.618
					c-3.186,2.052-6.632,3.709-10.211,4.975c-1.092,0.395-2.138,0.742-3.229,1.135c-0.305,0.131-0.654,0.176-1.004,0.176
					c-0.524,0-1.004-0.133-1.396-0.482c-0.218-0.217-0.436-0.391-0.611-0.609c-2.182-2.355-4.449-4.625-6.807-6.807
					c-2.355-2.138-4.406-4.539-6.195-7.156c-0.524-0.742-0.785-1.571-0.873-2.487c-0.217-2.968-0.393-5.977-0.567-8.944
					c-0.349-6.894-0.349-13.832-0.262-20.727c0-1.177,0-2.354,0.044-3.534c0-0.522-0.218-0.872-0.654-1.134
					c-0.393-0.261-0.873-0.348-1.309-0.436c-0.654-0.131-1.353-0.176-2.008-0.262c-0.959-0.086-1.92-0.174-2.879-0.305
					c-0.698-0.087-1.396-0.264-2.096-0.394c-0.26-0.042-0.479-0.131-0.741-0.175c-0.219-0.045-0.437,0.044-0.567,0.219
					c-0.043,0.043-0.088,0.132-0.131,0.217c-0.741,1.179-1.657,2.227-2.662,3.186c-0.959,0.916-2.006,1.658-3.229,2.227
					c-2.66,1.178-5.41,2.094-8.29,2.66c-0.349,0.087-0.741,0.132-1.133,0.132c-0.612,0.043-1.092-0.218-1.441-0.655
					c-0.261-0.35-0.479-0.697-0.697-1.047c-1.091-1.832-2.226-3.707-3.317-5.541c-0.696-1.133-1.439-2.312-2.137-3.447
					c-0.132-0.174-0.219-0.348-0.393-0.523c-0.045-0.043-0.176-0.086-0.219-0.043c-0.087,0-0.175,0.086-0.175,0.174
					c-0.044,0.263-0.044,0.48-0.044,0.742c0.044,3.403,0.044,6.851,0.086,10.254c0.045,2.357,0.088,4.711,0.133,7.068
					c0.086,3.75,0.174,7.504,0.305,11.258c0.131,3.404,0.305,6.805,0.48,10.252c0.043,1.092,0.13,2.182,0.218,3.273
					c0,0.304,0.044,0.609,0.044,0.873c0,0.174,0,0.304-0.132,0.435c-0.087,0.087-0.262-0.087-0.348-0.435
					c-0.132-0.306-0.22-0.654-0.306-0.961c-0.524-1.525-1.047-3.054-1.572-4.537c-0.392-1.134-0.828-2.227-1.396-3.273
					c-0.174-0.349-0.393-0.654-0.61-0.959c-0.088-0.133-0.264-0.219-0.393-0.306c-0.088-0.044-0.263,0-0.35,0.087
					c-0.131,0.174-0.219,0.348-0.263,0.566c-0.086,0.742-0.174,1.528-0.174,2.27c-0.044,2.096-0.088,4.232-0.088,6.328
					c-0.044,4.451,0.132,8.943,0.218,13.395c0.044,2.139,0.131,4.319,0.176,6.458c0,0.61,0,1.264,0,1.876
					c0,0.043-0.088,0.129-0.132,0.176c-0.044,0.043-0.174,0-0.218-0.047c-0.131-0.129-0.219-0.26-0.305-0.391
					c-0.35-0.524-0.654-1.092-1.004-1.614c-0.262-0.394-0.479-0.786-0.742-1.178c-0.305-0.395-0.611-0.829-0.959-1.18
					c-0.262-0.261-0.567-0.479-0.873-0.696c-0.393-0.262-0.786-0.133-0.916,0.305c-0.088,0.218-0.176,0.48-0.219,0.742
					c-0.086,0.566-0.174,1.178-0.262,1.744c-0.086,0.916-0.174,1.832-0.219,2.792c-0.085,2.792-0.218,5.585-0.261,8.335
					c-0.044,2.88-0.044,5.715-0.088,8.595c-0.043,3.229-0.174,6.501-0.394,9.73c-0.043,0.349-0.043,0.655-0.043,1.003
					c-0.131,3.578-0.305,7.156-0.305,10.734c0,1.398-0.088,2.793-0.131,4.189c0,0.262,0,0.479-0.218,0.742
					c-0.044-0.176-0.088-0.306-0.088-0.437c-0.218-2.182-0.392-4.362-0.565-6.544c-0.264-2.838-0.481-5.717-0.744-8.553
					c-0.13-1.266-0.262-2.531-0.393-3.797c-0.086-1.004-0.176-2.007-0.262-3.011c-0.13-1.396-0.218-2.793-0.349-4.146
					c-0.131-1.482-0.263-2.924-0.394-4.407c-0.087-1.003-0.217-2.007-0.305-3.011c-0.131-1.395-0.219-2.793-0.349-4.145
					c-0.132-1.441-0.262-2.836-0.394-4.276c-0.13-1.354-0.218-2.706-0.348-4.015c-0.133-1.527-0.264-3.012-0.395-4.537
					c-0.131-1.354-0.218-2.707-0.35-4.016c-0.086-1.045-0.174-2.093-0.261-3.141c-0.131-1.44-0.263-2.836-0.394-4.277
					c-0.131-1.354-0.217-2.703-0.348-4.012c-0.088-1.004-0.176-2.008-0.264-3.013c-0.218-2.442-0.436-4.888-0.654-7.285
					c-0.217-2.356-0.392-4.713-0.609-7.068c-0.132-1.397-0.263-2.793-0.394-4.146c-0.087-0.917-0.176-1.832-0.263-2.793
					c-0.174-1.963-0.35-3.969-0.479-5.934c0-0.088,0-0.176,0.044-0.262c0.044-0.088,0.086-0.133,0.174-0.174
					c0.046,0,0.176,0,0.219,0.041c0.219,0.264,0.437,0.525,0.655,0.785c0.522,0.699,1.09,1.396,1.614,2.095
					c0.393,0.525,0.872,1.005,1.395,1.483c0.088,0.088,0.219,0.132,0.307,0.176c0.13,0.086,0.392-0.044,0.392-0.218
					c0-0.306,0.044-0.612,0-0.874c-0.13-1.047-0.218-2.094-0.392-3.141c-0.611-4.014-1.354-7.986-2.095-11.955
					c-0.829-4.365-1.658-8.684-2.486-13.046c-0.046-0.175-0.046-0.349-0.088-0.48c0-0.13,0.044-0.305,0.175-0.305
					c0.087,0,0.175,0,0.217,0.043c0.655,0.61,1.311,1.222,1.965,1.788c0.349,0.305,0.697,0.611,1.134,0.83
					c0.131,0.086,0.305,0.13,0.48,0.175c0.175,0.043,0.349-0.043,0.437-0.175c0.174-0.175,0.305-0.437,0.305-0.654
					c0.043-0.35,0.087-0.654,0.087-1.004c0.044-1.702,0-3.36-0.218-5.061c-0.132-1.135-0.219-2.269-0.35-3.403
					c-0.131-1.266-0.262-2.531-0.437-3.753c-0.088-0.872-0.218-1.745-0.305-2.618c-0.306-2.573-0.567-5.104-0.873-7.68
					c-0.262-2.356-0.523-4.712-0.784-7.025c-0.219-1.833-0.438-3.665-0.655-5.541c-0.087-0.917-0.218-1.833-0.304-2.749
					c-0.046-0.218-0.046-0.436-0.046-0.61c-0.087-0.917-0.479-1.658-1.222-2.269c-1.482-1.223-2.966-2.488-4.449-3.752
					c-0.48-0.394-1.004-0.786-1.354-1.31c-0.044-0.087,0-0.305,0.088-0.305c0.043,0,0.086-0.043,0.13-0.043
					c0.698-0.086,1.44-0.175,2.139-0.218c1.221-0.086,2.442-0.175,3.665-0.218c1.396-0.086,2.792-0.174,4.189-0.261
					c2.007-0.131,4.057-0.218,6.064-0.35c1.789-0.131,3.533-0.261,5.322-0.393c0.176,0,0.351-0.044,0.525-0.044
					c1.832-0.086,3.708-0.218,5.541-0.305c1.79-0.13,3.621-0.262,5.409-0.35c0.962-0.043,1.921-0.087,2.925-0.131
					c0.436,0,0.828-0.044,1.264-0.087c0.176,0,0.305-0.086,0.48-0.174C348.856,101.472,349.512,101.472,350.166,101.472z
					 M381.406,185.596C381.406,185.596,381.363,185.596,381.406,185.596c0.088,5.717,0.131,11.477,0.219,17.191
					c0,0.262,0,0.525,0.043,0.743c0.131,1.31,0.567,2.443,1.527,3.36c1.004,1.002,1.963,2.095,2.967,3.098
					c0.219,0.262,0.436,0.479,0.698,0.697c0.523,0.437,1.091,0.611,1.745,0.307c0.262-0.132,0.523-0.264,0.785-0.395
					c1.614-0.827,3.23-1.656,4.844-2.486c0.262-0.133,0.523-0.262,0.785-0.436c0.61-0.349,1.004-0.873,1.264-1.528
					c0.133-0.392,0.219-0.829,0.219-1.222c0-0.566,0.045-1.091,0.045-1.658c0.131-7.112-0.045-14.225-0.35-21.336
					c-0.088-1.657-0.174-3.273-0.262-4.932c-0.131-1.7-0.262-3.447-0.394-5.147c-0.174-1.964-0.349-3.928-0.524-5.935
					c-0.043-0.479-0.131-0.916-0.348-1.352c-0.132-0.262-0.35-0.48-0.699-0.48c-0.48-0.044-0.916,0.044-1.396,0.131
					c-1.743,0.306-3.488,0.611-5.236,0.916c-1.439,0.263-2.923,0.48-4.362,0.742c-0.349,0.043-0.653,0.176-0.96,0.262
					c-0.523,0.217-0.784,0.611-0.916,1.133c-0.044,0.264-0.044,0.525-0.044,0.744c0,0.654,0,1.354,0,2.006
					C381.188,175.344,381.275,180.492,381.406,185.596z M334.764,133.499L334.764,133.499c0.086,7.025,0.174,14.094,0.305,21.117
					c0,0.305,0,0.611,0.043,0.873c0,0.131,0.045,0.261,0.087,0.35c0.046,0.175,0.219,0.307,0.35,0.262
					c0.35-0.043,0.653-0.087,1.004-0.13c1.264-0.261,2.573-0.479,3.883-0.611c2.094-0.218,4.188-0.349,6.326-0.391
					c0.22,0,0.438,0,0.612-0.045c0.828-0.13,1.308-0.61,1.308-1.439c0-0.393,0-0.743,0-1.134c-0.085-2.269-0.175-4.539-0.261-6.807
					c-0.131-3.796-0.219-7.591-0.35-11.388c0-0.262,0-0.524-0.044-0.742c-0.131-3.447-0.262-6.895-0.393-10.341
					c-0.131-3.229-0.218-6.501-0.306-9.73c0-0.218,0-0.437-0.045-0.61c0-0.174-0.043-0.349-0.084-0.479
					c-0.088-0.349-0.351-0.61-0.7-0.654c-0.175-0.044-0.349-0.044-0.524-0.044c-1.482-0.087-2.967-0.131-4.406-0.218
					c-1.31-0.044-2.617-0.131-3.927-0.174c-0.83-0.044-1.702-0.087-2.531-0.087c-0.524,0-0.742,0.217-0.742,0.785
					c0,0.262,0,0.525,0,0.743c0.044,2.095,0.044,4.231,0.087,6.327C334.588,123.812,334.676,128.656,334.764,133.499z
					 M381.842,160.072C381.842,160.072,381.799,160.072,381.842,160.072c0.045,0.565,0.133,1.178,0.176,1.745
					c0,0.131,0.044,0.261,0.088,0.35c0.13,0.39,0.609,0.652,1.002,0.522c0.525-0.174,1.006-0.435,1.441-0.784
					c1.047-0.786,2.051-1.616,2.923-2.575c0.743-0.785,1.396-1.658,1.92-2.662c0.655-1.221,1.222-2.487,1.657-3.795
					c0.045-0.132,0.045-0.261,0.088-0.35c0.044-0.307-0.262-0.568-0.567-0.479c-0.13,0.043-0.263,0.086-0.349,0.129
					c-0.262,0.175-0.566,0.394-0.829,0.568c-1.177,0.873-2.399,1.702-3.578,2.575c-0.741,0.523-1.526,1.091-2.269,1.614
					c-0.35,0.262-0.742,0.566-1.048,0.873c-0.436,0.436-0.698,0.959-0.698,1.571C381.842,159.636,381.842,159.854,381.842,160.072z
					 M341.701,160.465c-0.131,0-0.175,0-0.219,0c-0.305,0-0.523,0.348-0.436,0.611c0.043,0.174,0.131,0.305,0.217,0.436
					c0.916,1.353,1.877,2.705,2.793,4.059c0.131,0.175,0.263,0.305,0.437,0.48c0.351,0.35,0.873,0.35,1.266,0
					c0.13-0.131,0.263-0.219,0.349-0.349c0.611-0.786,1.223-1.616,1.833-2.401c0.086-0.132,0.174-0.305,0.218-0.437
					c0.174-0.394,0-0.873-0.394-1.047c-0.218-0.087-0.481-0.176-0.698-0.263c-1.657-0.348-3.272-0.697-4.93-1.047
					C341.962,160.465,341.788,160.465,341.701,160.465z"/>
				<path fill="#FFFFFF" d="M543.11,161.205c-1.179,1.571-2.531,3.012-3.884,4.495c-1.832,1.964-3.84,3.797-5.891,5.542
					c-0.305,0.261-0.566,0.479-0.915,0.697c-0.132,0.088-0.306,0.131-0.48,0.176c-0.175,0.043-0.437-0.133-0.481-0.307
					c-0.174-0.523-0.086-1.004,0.088-1.482c0.131-0.35,0.35-0.654,0.567-1.005c0.394-0.61,0.785-1.222,1.179-1.788
					c0.96-1.396,1.003-2.051,0.479-3.578c-1.221-3.579-2.398-7.2-3.578-10.777c-0.086-0.218-0.129-0.393-0.26-0.568
					c-0.132-0.218-0.306-0.437-0.525-0.568c-1.003-0.609-2.094-0.479-2.836,0.437c-0.305,0.393-0.48,0.786-0.523,1.266
					c-0.045,0.568-0.088,1.091-0.045,1.657c0.045,3.841,0.131,7.68,0.176,11.519c0.088,4.975,0.174,9.949,0.262,14.922
					c0.088,5.062,0.176,10.123,0.262,15.186c0.044,3.621,0.131,7.244,0.218,10.863c0.045,2.27,0.219,4.54,0.525,6.809
					c0.13,0.96,0.304,1.92,0.522,2.879c0.567,2.533,1.92,4.583,3.928,6.152c0.916,0.698,1.875,1.266,2.924,1.789
					c0.305,0.131,0.566,0.307,0.872,0.48c0.044,0,0.044,0.045,0.044,0.088c0,0.086-0.044,0.174-0.132,0.174
					c-1.046-0.043-2.094-0.043-3.14-0.086c-1.397-0.088-2.749-0.262-4.146-0.394c-1.921-0.132-3.841-0.437-5.76-0.741
					c-4.757-0.742-9.423-1.833-14.094-3.099c-0.261-0.045-0.479-0.175-0.698-0.263c-0.044,0-0.087-0.086-0.087-0.086
					c0-0.088,0.044-0.176,0.087-0.219c0.176-0.131,0.35-0.219,0.568-0.305c2.398-1.049,4.188-2.793,5.409-5.105
					c0.698-1.31,1.179-2.705,1.483-4.145c0.35-1.613,0.48-3.229,0.436-4.888c-0.131-5.672-0.26-11.388-0.348-17.061
					c-0.045-2.792-0.088-5.585-0.131-8.334c-0.132-6.808-0.263-13.57-0.394-20.378c-0.044-1.396-0.044-2.791-0.044-4.189
					c0-0.522-0.086-1.004-0.175-1.483c-0.175-0.653-0.61-1.003-1.223-1.134c-0.479-0.086-1.003-0.131-1.483-0.261
					c-0.217-0.043-0.393-0.131-0.566-0.218c-0.218-0.132-0.35-0.436-0.218-0.655c0.044-0.129,0.13-0.218,0.174-0.304
					c0.132-0.175,0.263-0.35,0.394-0.48c3.099-3.708,6.24-7.417,9.338-11.169c0.742-0.873,1.482-1.745,2.226-2.618
					c0.304-0.349,0.61-0.698,1.046-0.917c0.176-0.13,0.611,0,0.654,0.218c0.131,0.568,0.219,1.178,0.305,1.746
					c0.131,1.004,0.219,2.007,0.306,3.011c0.045,0.48,0.131,0.917,0.263,1.352c0.13,0.35,0.566,0.568,0.916,0.481
					c0.392-0.087,0.697-0.263,1.004-0.481c1.221-0.785,2.486-1.614,3.751-2.399c0.35-0.218,0.743-0.437,1.091-0.61
					c0.176-0.087,0.395-0.174,0.612-0.217c0.392-0.088,0.741,0.043,1.004,0.348c0.305,0.35,0.523,0.786,0.698,1.179
					c1.047,2.05,2.093,4.145,3.141,6.195c1.439,2.837,2.836,5.629,4.275,8.465c0.306,0.609,0.611,1.177,0.786,1.875
					c0,0.045,0.131,0.088,0.175,0.176C543.11,159.854,543.11,160.508,543.11,161.205z"/>
				<path fill="#FFFFFF" d="M74.93,182.63c0.087-0.306,0.174-0.567,0.262-0.874c0.305-0.83,0.828-1.481,1.614-1.875
					c0.218-0.131,0.436-0.219,0.698-0.307c2.182-0.916,4.45-1.569,6.807-1.875c0.742-0.088,1.527-0.174,2.269-0.088
					c0.043,0,0.131,0.088,0.175,0.132c0,0.045,0,0.174-0.044,0.218c-0.087,0.086-0.174,0.175-0.305,0.263
					c-0.262,0.173-0.567,0.349-0.829,0.567c-1.657,1.09-3.229,2.312-4.712,3.621c-0.262,0.218-0.48,0.479-0.698,0.697
					c-0.262,0.305-0.393,0.653-0.393,1.048c0,0.263,0.043,0.522,0.218,0.698c0.175,0.174,0.306,0.393,0.524,0.566
					c2.618,2.4,5.323,4.668,8.247,6.678c1.963,1.352,4.145,2.268,6.414,2.921c0.349,0.087,0.742,0.132,1.135,0.219
					c0.13,0,0.349-0.175,0.392-0.305c0.044-0.263,0.044-0.524,0.044-0.743c0-1.09,0-2.182,0-3.271
					c0.043-12.305,0.043-24.654,0.087-36.958c0-5.889,0.043-11.824,0.043-17.714c0-0.829-0.043-1.703-0.087-2.531
					c-0.087-1.266-0.654-2.356-1.614-3.186c-0.61-0.523-1.222-1.047-1.789-1.57c-0.524-0.479-1.048-1.004-1.528-1.528
					c-0.131-0.13-0.175-0.261-0.218-0.436c0-0.175,0.087-0.349,0.218-0.393c0.35-0.131,0.742-0.087,1.134-0.087
					c0.698,0,1.44,0.043,2.138,0.043c5.499,0,10.952,0,16.45,0c0.566,0,1.091,0,1.658,0.043c0.13,0,0.218,0.087,0.349,0.087
					c0.087,0.043,0.174,0.217,0.174,0.305c0,0.218-0.131,0.392-0.262,0.567c-0.61,0.698-1.178,1.439-1.789,2.137
					c-0.305,0.393-0.654,0.786-1.004,1.178c-0.479,0.568-0.698,1.222-0.742,1.964c0,0.699,0,1.439,0,2.137
					c0,11.825,0,23.604,0,35.43c0,7.33,0,14.66,0,22.036c0,0.479,0.044,0.914,0.044,1.396c0,0.218,0.262,0.349,0.479,0.304
					c0.219-0.043,0.393-0.086,0.611-0.174c1.265-0.479,2.487-1.092,3.622-1.791c1.658-0.959,3.185-2.049,4.669-3.227
					c1.309-1.047,2.618-2.139,3.926-3.186c1.571-1.309,3.186-2.662,4.756-3.969c0.305-0.264,0.567-0.48,0.873-0.744
					c0.218-0.219,0.35-0.48,0.35-0.784c0-0.35,0-0.653,0-1.003c0-17.586,0-35.169,0-52.754c0-1.439,0.174-1.352-0.96-2.574
					c-0.96-1.003-1.877-2.051-2.792-3.097c-0.349-0.393-0.654-0.742-0.873-1.222c-0.131-0.306,0.087-0.742,0.436-0.786
					c0.349-0.043,0.654-0.043,1.004-0.043c1.789,0,3.534,0,5.323-0.043c1.353,0,2.706-0.087,4.058-0.131
					c0.61,0,1.265-0.043,1.877-0.086c2.399,0,4.8-0.219,7.199-0.48c0.742-0.087,1.527-0.174,2.269-0.262
					c0.479-0.044,0.917-0.044,1.396-0.044c0.174,0,0.349,0.306,0.262,0.48c-0.174,0.262-0.349,0.568-0.567,0.829
					c-0.96,1.178-1.964,2.313-2.967,3.448c-0.567,0.654-1.134,1.352-1.702,2.006c-0.306,0.35-0.436,0.786-0.436,1.266
					c0,2.575,0,5.149,0,7.724c0,8.465-0.044,16.973-0.044,25.437c0,3.404-0.043,6.852-0.087,10.255c0,0.872,0,1.788,0.043,2.661
					c0,0.176,0.043,0.348,0.131,0.479c0.043,0.088,0.174,0.176,0.305,0.176c0.174,0,0.349-0.043,0.479-0.088
					c1.702-0.479,3.491-0.698,5.236-0.828c1.483-0.131,2.923-0.262,4.407-0.393c0.436-0.043,0.829-0.086,1.265-0.086
					c0.829-0.047,1.703-0.133,2.531-0.176c0.087,0,0.174,0,0.262,0c5.148-0.219,10.296-0.524,15.446-0.35
					c0.349,0,0.654,0.043,1.003,0.043c0.306,0.045,0.567,0.133,0.786,0.35c0.305,0.262,0.436,0.654,0.174,1.004
					c-0.131,0.176-0.262,0.35-0.393,0.48c-0.392,0.35-0.785,0.654-1.178,1.004c-1.483,1.178-2.966,2.398-4.407,3.576
					c-0.523,0.437-1.047,0.874-1.527,1.311c-0.568,0.523-0.917,1.221-0.873,2.007c0,0.612,0,1.178,0.087,1.788
					c0.175,1.791,0.436,3.623,0.786,5.368c0.654,3.446,1.353,6.851,2.051,10.298c0.392,1.963,0.742,3.971,1.178,5.978
					c0.13,0.741,0.348,1.481,0.566,2.225c0.131,0.437,0.35,0.872,0.568,1.266c0.174,0.349,0.524,0.524,0.916,0.565
					c0.479,0.043,0.917,0,1.396-0.129c0.96-0.264,1.789-0.699,2.575-1.309c0.436-0.351,0.742-0.787,0.959-1.311
					c0.306-0.785,0.479-1.614,0.567-2.443c0.087-0.785,0.131-1.613,0.087-2.398c-0.043-4.277-0.043-8.51-0.218-12.785
					c-0.043-1.048-0.043-2.095-0.087-3.143c-0.131-4.537-0.306-9.118-0.437-13.656c0-0.176,0-0.349,0-0.524
					c-0.13-3.36-0.217-6.765-0.392-10.122c-0.087-1.791-0.175-3.534-0.262-5.324c-0.087-1.091-0.131-2.182-0.436-3.272
					c-0.087-0.348-0.218-0.743-0.35-1.091c-0.131-0.349-0.349-0.698-0.61-0.96c-0.436-0.436-0.96-0.653-1.614-0.436
					c-0.35,0.131-0.699,0.262-1.047,0.48c-0.437,0.261-0.828,0.567-1.266,0.873c-1.92,1.438-3.839,2.922-5.672,4.451
					c-0.305,0.262-0.567,0.479-0.873,0.741c-0.917,0.786-1.353,1.788-1.353,3.011c0,0.393,0,0.742,0.043,1.135
					c0.044,0.741,0.044,1.525,0.088,2.268c0,0.264-0.044,0.523-0.131,0.742c-0.174,0.437-0.654,0.699-1.135,0.35
					c-0.131-0.087-0.262-0.218-0.392-0.35c-0.175-0.176-0.305-0.393-0.437-0.611c-1.614-2.443-3.054-4.929-4.363-7.548
					c-0.305-0.654-0.568-1.309-0.786-2.006c-0.524-1.876-0.218-3.578,0.96-5.149c0.524-0.699,1.178-1.353,1.92-1.833
					c0.917-0.611,1.833-1.223,2.749-1.789c2.443-1.529,4.974-2.881,7.461-4.233c0.873-0.48,1.79-0.961,2.706-1.396
					c0.393-0.218,0.829-0.392,1.266-0.567c0.349-0.131,0.742-0.175,1.134-0.175c0.306,0.044,0.61,0.087,0.829,0.305
					c0.305,0.262,0.611,0.479,0.829,0.785c2.88,3.491,6.021,6.763,9.033,10.08c0.654,0.742,1.265,1.482,1.833,2.269
					c1.483,2.138,2.269,4.494,2.312,7.111c0.043,0.961,0.043,1.922,0.043,2.926c0,6.195,0.087,12.391,0.175,18.586
					c0.087,4.016,0.087,8.028,0.131,12c0.044,2.531,0.087,5.062,0.131,7.594c0,0.739,0.043,1.525,0.262,2.268
					c0.087,0.262,0.175,0.566,0.262,0.829c0.349,0.874,1.003,1.309,1.963,1.354c0.523,0.043,1.004,0,1.527,0
					c0.261,0,0.523,0.043,0.742,0.043c0.217,0,0.348,0.35,0.217,0.479c-0.217,0.262-0.436,0.525-0.654,0.743
					c-1.135,1.09-2.269,2.181-3.403,3.229c-1.528,1.395-2.924,2.921-4.189,4.58c-0.612,0.829-1.309,1.527-2.095,2.225
					c-0.524,0.479-1.134,0.917-1.745,1.223c-1.091,0.568-2.226,0.742-3.447,0.393c-0.567-0.174-1.004-0.479-1.309-0.959
					c-0.262-0.395-0.393-0.829-0.524-1.266c-0.131-0.437-0.174-0.916-0.305-1.352c-0.087-0.307-0.218-0.655-0.35-0.918
					c-0.13-0.262-0.349-0.348-0.61-0.348c-0.305,0-0.61,0.043-0.873,0.174c-0.393,0.174-0.742,0.394-1.091,0.611
					c-1.527,0.916-3.01,1.832-4.538,2.749c-0.611,0.392-1.266,0.698-1.92,0.915c-0.828,0.262-1.657,0.35-2.487,0.219
					c-1.047-0.131-1.919-0.611-2.618-1.44c-0.567-0.653-0.959-1.396-1.178-2.226c-0.261-0.873-0.479-1.789-0.698-2.705
					c-0.917-3.578-1.703-7.198-2.487-10.82c-0.612-2.749-1.135-5.541-1.658-8.291c-0.218-1.178-0.436-2.312-0.568-3.49
					c-0.13-1.047-0.13-2.093-0.043-3.14c0.131-1.266,0.568-2.445,1.309-3.491c0.524-0.742,1.091-1.396,1.789-1.963
					c1.091-0.959,2.225-1.964,3.316-2.924c0.261-0.219,0.523-0.437,0.741-0.697c0.087-0.088,0.13-0.219,0.218-0.307
					c0.087-0.174-0.044-0.479-0.218-0.479c-0.261,0-0.523,0-0.741,0.043c-1.79,0.35-3.535,0.697-5.323,1.092
					c-3.273,0.698-6.501,1.396-9.774,2.137c-0.654,0.133-1.309,0.307-1.963,0.48c-1.004,0.263-1.571,0.918-1.789,1.922
					c-0.087,0.393-0.175,0.829-0.219,1.221c-0.087,1.047-0.131,2.094-0.131,3.142c0,8.114,0,16.188,0,24.304
					c0,10.863,0,21.771,0,32.638c0,1.483,0.044,2.966,0.131,4.406c0.13,2.052,0.611,3.97,1.44,5.849
					c0.654,1.525,1.614,2.879,2.836,4.013c0.742,0.698,1.526,1.354,2.269,2.052c0.262,0.262,0.524,0.523,0.786,0.784
					c0.175,0.175,0.262,0.437,0.305,0.655c0.087,0.349-0.087,0.697-0.392,0.871c-0.392,0.219-0.786,0.306-1.222,0.306
					c-0.567,0-1.091-0.13-1.614-0.306c-0.917-0.216-1.789-0.479-2.662-0.74c-1.483-0.438-3.011-0.742-4.582-0.829
					c-3.054-0.176-6.064-0.218-9.12-0.089c-1.265,0.045-2.53,0.177-3.795,0.307c-1.484,0.174-2.967,0.174-4.407,0.219
					c-0.349,0-0.654-0.045-1.003-0.088c-0.567-0.088-0.829-0.566-0.655-1.135c0.131-0.393,0.306-0.697,0.612-0.959
					c0.174-0.176,0.392-0.35,0.566-0.482c0.306-0.217,0.611-0.434,0.917-0.652c1.746-1.179,3.011-2.793,3.884-4.756
					c0.872-2.051,1.527-4.189,1.92-6.416c0.349-2.006,0.479-4.014,0.479-6.064c0-9.992,0-19.982,0-29.975c0-5.062,0-10.123,0-15.186
					c0-0.523-0.044-1.003-0.087-1.527c-0.043-0.35-0.436-0.566-0.785-0.434c-0.217,0.084-0.479,0.217-0.655,0.348
					c-0.785,0.523-1.527,1.047-2.269,1.569c-0.916,0.655-1.833,1.31-2.792,2.009c-1.222,0.873-2.531,1.656-3.884,2.312
					c-0.479,0.217-0.959,0.479-1.483,0.741c-2.356,1.223-4.8,2.312-7.417,2.88c-0.262,0.045-0.437,0.264-0.479,0.524
					c-0.044,0.218-0.044,0.436-0.044,0.61c0,0.48,0,0.916,0,1.398c0,9.553,0,19.152,0,28.708c0,3.011,0,5.978,0,8.987
					c0,0.525,0.044,1.005,0.044,1.527c0.087,0.873,0.392,1.615,0.959,2.314c0.917,1.09,1.877,2.181,2.792,3.271
					c0.262,0.306,0.567,0.655,0.829,0.96c0.087,0.088,0.087,0.218,0.131,0.35c0.043,0.131-0.131,0.348-0.262,0.348
					c-0.218,0-0.436-0.043-0.612-0.086c-1.483-0.306-2.966-0.655-4.45-0.961c-1.527-0.304-3.054-0.566-4.625-0.828
					c-0.174-0.044-0.35-0.044-0.524-0.044c-1.702-0.087-3.36-0.219-5.061-0.306c-2.444-0.086-4.887-0.174-7.331-0.262
					c-0.349,0-0.654-0.043-1.003-0.086c-0.174,0-0.306-0.088-0.479-0.175c-0.131-0.046-0.218-0.307-0.131-0.437
					c0.087-0.131,0.174-0.305,0.305-0.393c0.349-0.307,0.698-0.611,1.047-0.961c1.266-1.135,2.487-2.269,3.796-3.358
					c0.917-0.743,1.396-1.661,1.396-2.838c0-0.437,0.044-0.827,0.044-1.265c0-11.258,0-22.514,0-33.771c0-0.611,0-1.18-0.044-1.79
					c0-0.392-0.175-0.741-0.568-0.873c-0.479-0.174-0.917-0.437-1.396-0.653c-1.614-0.785-3.273-1.527-4.887-2.357
					c-2.835-1.482-5.542-3.184-7.985-5.278c-1.833-1.57-3.447-3.315-4.843-5.321c-0.96-1.398-1.703-2.926-2.008-4.583
					C75.104,183.109,75.017,182.892,74.93,182.63z"/>
				<path fill="#FFFFFF" d="M220.445,216.184c0.218,0,0.436,0,0.61,0c1.614,0.088,3.186,0.176,4.8,0.262
					c0.306,0,0.567,0.088,0.83,0.219c0.174,0.086,0.218,0.393,0.044,0.524c-0.22,0.13-0.394,0.304-0.655,0.392
					c-0.742,0.35-1.527,0.699-2.313,1.047c-1.745,0.829-3.534,1.615-5.279,2.444c-0.174,0.087-0.392,0.175-0.566,0.263
					c-0.48,0.26-0.917,0.61-1.178,1.09c-0.218,0.35-0.436,0.741-0.568,1.134c-0.654,1.526-1.265,3.011-1.919,4.538
					c-0.087,0.176-0.131,0.394-0.218,0.611c-0.13,0.35-0.13,0.742-0.043,1.135c0.087,0.436,0.305,0.785,0.742,0.959
					c0.261,0.087,0.566,0.176,0.828,0.219c0.96,0.129,1.92,0.176,2.88,0.305c1.396,0.131,2.793,0.262,4.146,0.393
					c1.178,0.132,2.356,0.219,3.534,0.35c1.657,0.176,3.272,0.305,4.931,0.48c1.221,0.131,2.443,0.217,3.665,0.35
					c1.178,0.13,2.355,0.262,3.534,0.348c1.178,0.132,2.356,0.219,3.535,0.35c1.658,0.174,3.36,0.305,5.018,0.48
					c0.96,0.086,1.92,0.174,2.88,0.261c0.479,0.043,0.916,0,1.396-0.043c0.524-0.046,0.961-0.306,1.266-0.743
					c0.175-0.219,0.306-0.393,0.436-0.61c0.175-0.263,0.306-0.524,0.437-0.785c4.538-8.29,9.031-16.581,13.57-24.871
					c0.392-0.698,0.741-1.396,1.134-2.138c0.087-0.176,0.174-0.394,0.305-0.566c0.699-1.18,0.83-2.443,0.568-3.797
					c-0.436-2.052-0.873-4.145-1.309-6.197c-0.959-4.45-1.919-8.898-2.88-13.351c-0.916-4.146-1.788-8.335-2.705-12.479
					c-0.306-1.439-0.611-2.879-0.873-4.317c-0.219-1.136-0.698-2.052-1.527-2.837c-0.349-0.307-0.654-0.656-1.004-0.96
					c-0.087-0.087-0.131-0.218-0.175-0.306c-0.087-0.174,0.043-0.48,0.218-0.523c0.175-0.045,0.305-0.131,0.479-0.131
					c0.873-0.088,1.746-0.131,2.662-0.176c1.135-0.086,2.269-0.13,3.403-0.218c2.008-0.13,4.058-0.218,6.065-0.349
					c0.436-0.045,0.829,0,1.265,0c0.218,0,0.393,0.086,0.393,0.219c0.043,0.174-0.087,0.304-0.218,0.436
					c-0.48,0.393-0.959,0.873-1.44,1.221c-0.829,0.568-1.135,1.309-1.003,2.271c0.043,0.218,0.043,0.437,0.087,0.61
					c0.349,2.094,0.698,4.145,1.091,6.24c0.392,2.137,0.742,4.318,1.134,6.457c0.393,2.139,0.742,4.318,1.135,6.457
					s0.785,4.318,1.134,6.457c0.087,0.479,0.174,1.004,0.306,1.482c0.087,0.307,0.174,0.655,0.305,0.961
					c0.087,0.262,0.568,0.35,0.742,0.131c0.131-0.176,0.305-0.305,0.394-0.479c0.261-0.524,0.523-1.048,0.741-1.615
					c2.487-5.891,4.844-11.868,7.156-17.845c1.178-3.055,2.4-6.107,3.403-9.25c0.437-1.311,0.83-2.662,1.265-3.969
					c0.131-0.396,0.218-0.83,0.306-1.225c0.218-0.915-0.044-1.657-0.742-2.269c-0.654-0.524-1.309-1.09-1.964-1.615
					c-0.262-0.218-0.479-0.435-0.741-0.698c-0.044-0.043-0.044-0.175-0.044-0.219c0-0.086,0.087-0.174,0.175-0.174
					c0.174-0.043,0.349-0.043,0.479-0.043c1.527,0.086,3.011,0.175,4.538,0.261c1.571,0.088,3.098,0.218,4.668,0.305
					c1.92,0.131,3.884,0.218,5.804,0.306c0.436,0.043,0.828,0.043,1.265,0.218c0.393,0.13,0.611,0.523,0.524,0.873
					c-0.175,0.566-0.393,1.134-0.611,1.657c-2.226,5.194-4.451,10.386-6.72,15.578c-2.705,6.282-5.498,12.522-8.334,18.72
					c-3.926,8.551-8.247,16.884-12.959,25.044c-4.843,8.376-9.6,16.755-14.399,25.132c-0.218,0.35-0.436,0.744-0.654,1.092
					c-0.175,0.262-0.436,0.523-0.654,0.784c-0.175,0.176-0.393,0.306-0.655,0.306c-0.305,0.044-0.611,0.087-0.873,0.044
					c-0.699-0.044-1.44-0.087-2.139-0.175c-0.611-0.045-1.266-0.13-1.876-0.175c-2.617-0.218-5.192-0.437-7.81-0.653
					c-1.396-0.131-2.792-0.22-4.145-0.349c-1.354-0.132-2.706-0.264-4.015-0.394c-1.003-0.088-2.007-0.219-3.011-0.307
					c-2.399-0.174-4.755-0.565-7.155-1.002c-2.051-0.35-4.058-0.743-6.108-1.093c-5.629-0.959-10.865-3.011-15.839-5.803
					c-0.394-0.218-0.785-0.479-1.178-0.741c-0.218-0.133-0.35-0.35-0.524-0.524c-0.218-0.305-0.261-0.612-0.174-0.962
					c0.131-0.348,0.262-0.74,0.393-1.045c1.09-2.27,2.225-4.537,3.36-6.806c0.437-0.829,0.96-1.573,1.702-2.183
					c1.309-1.135,2.618-2.27,3.883-3.402c0.873-0.787,1.833-1.137,3.011-1.049c1.222,0.045,2.444,0.088,3.665,0.131
					C219.748,216.184,220.096,216.184,220.445,216.184z"/>
				<path fill="#FFFFFF" d="M473.908,223.645c0.567,0,1.309,0.043,2.051,0.043c1.921,0.088,3.883,0.176,5.803,0.262
					c0.176,0,0.35,0.045,0.48,0.045c0.219,0.043,0.48,0.219,0.437,0.349c0,0.176-0.132,0.306-0.263,0.394
					c-0.305,0.219-0.61,0.436-0.959,0.609c-1.179,0.568-2.052,1.44-2.75,2.531c-1.309,2.053-2.705,4.102-4.059,6.109
					c-0.304,0.479-0.653,1.004-1.004,1.483c-0.217,0.304-0.479,0.61-0.741,0.874c-0.479,0.522-1.092,0.609-1.745,0.391
					c-0.217-0.043-0.393-0.129-0.566-0.218c-0.611-0.306-1.223-0.567-1.834-0.915c-5.934-3.186-11.91-6.371-17.846-9.556
					c-0.611-0.349-1.265-0.655-1.92-1.005c-0.219-0.131-0.436-0.261-0.653-0.35c-0.785-0.391-1.179-1.09-1.223-1.918
					c-0.044-0.393-0.044-0.742-0.044-1.135c-0.043-2.705-0.043-5.41-0.088-8.115c-0.087-6.633-0.174-13.266-0.262-19.854
					c-0.086-5.41-0.174-10.776-0.262-16.188c-0.086-4.887-0.174-9.773-0.261-14.66c-0.044-3.403-0.132-6.851-0.176-10.254
					c0-0.524-0.044-1.004-0.218-1.484c-0.174-0.393-0.436-0.611-0.83-0.698c-0.392-0.087-0.741-0.087-1.133-0.087
					c-1.178-0.043-2.355,0-3.535-0.043c-0.437,0-0.828,0-1.264-0.043c-0.219,0-0.394-0.087-0.612-0.175
					c-0.13-0.043-0.262-0.304-0.175-0.436c0.175-0.262,0.305-0.479,0.48-0.741c0.611-0.699,1.222-1.397,1.834-2.095
					c2.441-2.88,4.887-5.716,7.285-8.596c1.396-1.658,2.661-3.403,3.84-5.193c1.657-2.53,3.273-5.105,4.801-7.723
					c0.174-0.305,0.436-0.611,0.653-0.916c0.044-0.044,0.175-0.088,0.218-0.044c0.088,0,0.131,0.088,0.174,0.131
					c0.045,0.087,0.088,0.175,0.088,0.218c0.045,0.218,0.045,0.436,0.045,0.611c0.086,2.095,0.131,4.231,0.218,6.326
					c0.131,3.404,0.218,6.851,0.348,10.254c0.044,0.699,0.088,1.439,0.218,2.138c0.045,0.13,0.045,0.261,0.088,0.35
					c0.131,0.262,0.305,0.479,0.61,0.61c0.481,0.175,1.005,0.219,1.483,0.219c0.83,0,1.703,0.043,2.531,0.043
					c1.005,0,2.008,0,3.055,0.043c0.479,0,0.916,0.044,1.353,0.218c0.35,0.132,0.567,0.394,0.655,0.7
					c0.043,0.086,0.043,0.174,0.043,0.262c0.088,0.872,0.131,1.788,0.043,2.661c-0.043,0.524-0.348,0.873-0.873,0.96
					c-0.523,0.087-1.09,0.174-1.613,0.218c-1.57,0.13-3.098,0.218-4.67,0.305c-0.479,0.043-0.915,0.087-1.352,0.218
					c-0.437,0.086-0.742,0.393-0.873,0.828c-0.174,0.524-0.219,1.092-0.219,1.615c0,1.221,0.045,2.443,0.045,3.665
					c0.088,4.452,0.131,8.946,0.218,13.395c0.132,7.812,0.262,15.621,0.393,23.388c0.044,3.883,0.087,7.767,0.131,11.649
					c0.087,5.674,0.176,11.301,0.263,16.974c0,1.047,0.129,2.095,0.176,3.142c0.043,0.566,0.304,1.047,0.783,1.396
					c0.262,0.218,0.568,0.393,0.83,0.566c0.697,0.395,1.396,0.785,2.094,1.18c1.833,1.003,3.709,2.005,5.585,3.01
					c0.349,0.218,0.743,0.393,1.134,0.524c0.611,0.261,1.179,0.087,1.658-0.35c0.176-0.175,0.35-0.349,0.524-0.565
					c0.874-1.049,1.701-2.096,2.574-3.143c0.218-0.262,0.393-0.566,0.524-0.873c0.131-0.305-0.045-0.697-0.306-0.873
					c-0.394-0.219-0.872-0.35-1.31-0.393c-2.27-0.348-4.581-0.697-6.895-1.091c-0.609-0.087-1.264-0.175-1.833-0.437
					c-0.218-0.086-0.437-0.219-0.61-0.436c-0.088-0.176-0.088-0.48,0.088-0.568c0.131-0.086,0.305-0.173,0.479-0.173
					c0.349-0.045,0.653-0.045,1.003-0.045c1.877,0.086,3.711,0.132,5.586,0.218C472.512,223.558,473.123,223.602,473.908,223.645z"
					/>
				<path fill="#FFFFFF" d="M437.519,138.037c0,0.131,0,0.524,0,0.96c0,0.218,0,0.436-0.044,0.61
					c-0.043,0.436-0.393,0.786-0.83,0.873c-0.479,0.086-1.004,0.13-1.525,0.13c-1.048,0.044-2.096,0.044-3.143,0.088
					c-0.348,0-0.697,0-1.002,0.044c-0.219,0.043-0.395,0.086-0.612,0.175c-0.349,0.174-0.61,0.436-0.698,0.828
					c-0.043,0.392-0.086,0.742-0.131,1.135c-0.045,1.527-0.088,3.054-0.131,4.538c-0.131,4.626-0.262,9.295-0.436,13.92
					c0,0.174,0,0.35,0,0.523c-0.131,4.494-0.218,9.032-0.35,13.526c-0.131,4.362-0.262,8.771-0.393,13.134
					c0,0.48-0.043,0.916-0.043,1.396c-0.133,4.975-0.219,9.949-0.351,14.923c-0.086,4.8-0.218,9.599-0.304,14.397
					c0,0.479,0,0.916,0,1.396c0.043,0.566,0.218,1.047,0.654,1.484c0.217,0.218,0.436,0.434,0.609,0.609
					c1.746,1.745,3.447,3.447,5.192,5.192c0.218,0.218,0.479,0.48,0.698,0.743c0.131,0.174,0.218,0.35,0.306,0.566
					c0.13,0.392-0.088,0.785-0.481,0.873c-0.174,0.043-0.348,0.043-0.479,0.043c-0.306-0.043-0.567-0.131-0.83-0.305
					c-0.436-0.307-0.915-0.611-1.354-0.916c-4.362-3.01-8.725-6.066-13.088-9.075c-0.262-0.175-0.568-0.394-0.83-0.61
					c-0.479-0.35-0.742-0.83-0.828-1.354c-0.045-0.349-0.088-0.655-0.088-1.004c0-0.48,0-0.917,0-1.396
					c-0.043-23.562-0.088-47.167-0.176-70.729c0-0.48,0-0.917,0-1.396c0-0.262,0-0.524-0.043-0.743
					c-0.131-0.828-0.566-1.353-1.483-1.396c-1.57-0.087-3.099-0.175-4.668-0.218c-1.091-0.043-2.181-0.043-3.272-0.087
					c-0.524-0.043-1.092-0.131-1.614-0.174c-0.263-0.043-0.35-0.393-0.176-0.568c0.088-0.087,0.176-0.175,0.263-0.261
					c0.264-0.218,0.523-0.437,0.742-0.654c2.922-2.574,5.846-5.236,8.683-7.985c1.266-1.222,2.531-2.488,3.797-3.708
					c0.872-0.83,1.702-1.616,2.573-2.445c2.182-2.006,4.145-4.188,5.935-6.544c0.262-0.349,0.524-0.653,0.786-1.003
					c0.086-0.087,0.218-0.13,0.304-0.218c0.088-0.044,0.262,0.044,0.306,0.13c0.131,0.262,0.131,0.567,0.131,0.873
					c0.043,1.876,0.043,3.796,0.088,5.673c0.043,2.312,0.043,4.624,0.086,6.937c0,0.437,0,0.829,0.045,1.266
					c0.043,0.436,0.131,0.829,0.262,1.221c0.087,0.35,0.393,0.568,0.74,0.654c0.568,0.176,1.18,0.218,1.746,0.218
					c1.092,0,2.184,0.044,3.273,0.044c0.393,0,0.741,0.043,1.133,0.131c0.61,0.175,0.96,0.523,1.004,1.178
					C437.475,136.379,437.475,137.034,437.519,138.037z"/>
				<path fill="#FFFFFF" d="M472.163,180.099c0-0.784,0.044-1.614,0.044-2.399c0.131-4.713,0.305-9.425,0.436-14.18
					c0.045-1.484,0.087-2.968,0.087-4.408c0-0.741,0.132-1.527,0.218-2.269c0.088-0.654,0.394-1.222,0.83-1.702
					c0.218-0.261,0.48-0.48,0.698-0.743c2.706-2.705,5.454-5.41,8.159-8.116c0.611-0.609,1.265-1.221,1.92-1.833
					c0.35-0.306,0.698-0.61,1.091-0.873c0.698-0.48,1.396-0.524,2.138-0.13c0.393,0.218,0.785,0.479,1.178,0.698
					c1.048,0.699,2.139,1.397,3.186,2.052c1.876,1.178,3.797,2.356,5.672,3.577c0.132,0.088,0.307,0.174,0.438,0.263
					c0.828,0.522,1.395,1.22,1.701,2.137c0.218,0.655,0.436,1.266,0.654,1.919c1.311,3.796,2.574,7.593,3.883,11.388
					c0.263,0.83,0.524,1.701,0.698,2.574c0.175,0.873,0,1.658-0.479,2.401c-1.354,2.007-2.707,4.056-4.102,6.064
					c-0.262,0.437-0.611,0.784-0.961,1.135c-0.348,0.35-0.784,0.522-1.264,0.479c-0.395-0.043-0.742-0.088-1.135-0.176
					c-2.051-0.479-4.102-1.004-6.152-1.481c-2.008-0.481-4.014-1.004-6.021-1.528c-0.611-0.176-1.266-0.219-1.876-0.176
					c-0.35,0-0.653,0.219-0.741,0.568c-0.045,0.262-0.131,0.48-0.131,0.741c0,0.524,0,1.005,0,1.526
					c0.131,4.845,0.261,9.688,0.393,14.531c0.086,3.752,0.218,7.505,0.305,11.257c0.043,0.743,0.131,1.526,0.219,2.27
					c0.043,0.524,0.262,0.96,0.566,1.396c0.175,0.218,0.305,0.393,0.48,0.568c1.395,1.525,2.793,3.054,4.189,4.537
					c0.217,0.263,0.479,0.48,0.741,0.654c0.261,0.176,0.61,0.13,0.785-0.088c0.175-0.174,0.306-0.393,0.394-0.61
					c0.13-0.35,0.218-0.741,0.348-1.091c1.439-5.323,2.881-10.646,4.32-15.971c0.131-0.391,0.261-0.783,0.393-1.178
					c0.131-0.349,0.566-0.392,0.828-0.131c0.045,0.043,0.132,0.131,0.176,0.176c0.087,0.086,0.176,0.217,0.218,0.303
					c1.31,1.966,2.618,3.93,3.972,5.893c0.348,0.48,0.61,1.002,0.783,1.57c0.176,0.611,0.132,1.18-0.218,1.702
					c-0.13,0.263-0.306,0.479-0.479,0.743c-2.531,3.664-5.02,7.285-7.549,10.949c-0.262,0.395-0.523,0.743-0.828,1.137
					c-0.525,0.697-1.221,1.002-2.095,1.002c-1.527-0.043-3.054-0.13-4.538-0.262c-1.047-0.086-2.094-0.174-3.142-0.35
					c-1.047-0.174-1.92-0.652-2.53-1.482c-0.48-0.653-0.959-1.266-1.439-1.919c-1.266-1.79-2.531-3.579-3.797-5.368
					c-0.785-1.09-1.571-2.181-2.4-3.228c-0.784-0.962-1.135-2.052-1.09-3.272c0.043-1.266,0.086-2.531,0.13-3.797
					c0.132-4.974,0.262-9.948,0.393-14.922c0-0.828,0.045-1.703,0.087-2.532C472.119,180.099,472.119,180.099,472.163,180.099z
					 M483.114,160.638C483.114,160.638,483.158,160.638,483.114,160.638c-0.044,1.702-0.087,3.36-0.176,5.062
					c-0.042,0.784-0.042,1.614-0.086,2.399c0,0.262,0,0.523,0.044,0.742c0.044,0.349,0.218,0.655,0.523,0.828
					c0.305,0.178,0.612,0.307,0.916,0.35c0.48,0.131,1.004,0.176,1.484,0.262c1.919,0.306,3.84,0.612,5.758,0.918
					c0.961,0.129,1.922,0.304,2.881,0.436c0.305,0.044,0.567,0.044,0.872,0c0.394-0.045,0.655-0.436,0.567-0.83
					c-0.043-0.131-0.043-0.262-0.086-0.349c-0.176-0.437-0.306-0.872-0.481-1.309c-1.352-3.272-2.705-6.546-4.057-9.818
					c-1.004-2.356-1.964-4.756-2.968-7.112c-0.262-0.566-0.524-1.134-0.829-1.702c-0.175-0.348-0.524-0.567-0.916-0.61
					c-0.916-0.088-1.745,0.174-2.443,0.785c-0.262,0.218-0.437,0.525-0.524,0.873c-0.088,0.35-0.174,0.743-0.174,1.136
					C483.289,155.359,483.202,157.977,483.114,160.638z"/>
				<path fill="#FFFFFF" d="M214.904,172.898c0,0.132,0,0.264,0,0.395c0.13,3.359,0.218,6.764,0.349,10.121
					c0.13,3.447,0.261,6.895,0.393,10.385c0,0.436,0.043,0.83,0.043,1.266c0.088,1.658,0.131,3.272,0.219,4.931
					c0.043,1.002,0.087,2.007,0.087,3.053c0,1.179,0.393,2.138,1.265,2.924c0.698,0.653,1.396,1.266,2.051,1.876
					c0.393,0.349,0.829,0.698,1.266,1.049c0.175,0.129,0.262,0.305,0.392,0.479c0.087,0.087-0.043,0.394-0.174,0.394
					c-0.174,0.043-0.349,0.087-0.479,0.087c-1.527,0.086-3.054,0.174-4.538,0.262c-1.92,0.131-3.884,0.261-5.804,0.35
					c-0.174,0-0.349,0.043-0.523,0.043c-2.444,0.131-4.887,0.218-7.331,0.349c-0.48,0-0.917,0-1.396-0.044
					c-0.349,0-0.479-0.393-0.261-0.654c0.174-0.217,0.392-0.436,0.567-0.653c0.698-0.698,1.353-1.353,2.051-2.052
					c0.261-0.262,0.524-0.523,0.786-0.828c0.436-0.523,0.742-1.135,0.829-1.789c0.087-0.524,0.087-1.004,0.087-1.527
					c-0.087-3.71-0.131-7.416-0.219-11.127c-0.087-4.145-0.174-8.246-0.261-12.391c-0.087-4.363-0.218-8.771-0.306-13.134
					c-0.087-3.097-0.13-6.153-0.217-9.251c-0.131-5.147-0.306-10.296-0.437-15.445c0-0.305,0-0.61-0.044-0.873
					c-0.087-0.567-0.479-1.004-1.091-1.09c-0.742-0.132-1.483-0.218-2.269-0.263c-1.047-0.043-2.095-0.174-3.142-0.261
					c-0.175,0-0.306-0.087-0.48-0.131c-0.175-0.087-0.262-0.393-0.087-0.523c0.392-0.35,0.828-0.743,1.265-1.047
					c2.923-2.27,5.89-4.538,8.813-6.806c1.527-1.178,3.055-2.356,4.626-3.535c0.348-0.262,0.698-0.479,1.047-0.698
					c0.262-0.175,0.568,0,0.698,0.349c0.044,0.131,0.044,0.263,0.088,0.393c0.087,1.265,0.174,2.531,0.305,3.796
					c0.087,1.222,0.174,2.443,0.306,3.665c0.043,0.437,0.13,0.828,0.175,1.266c0.044,0.218,0.305,0.35,0.48,0.218
					c0.305-0.174,0.61-0.306,0.873-0.524c1.483-1.004,2.923-1.963,4.407-2.967c0.349-0.217,0.698-0.48,1.047-0.698
					c0.218-0.131,0.479-0.218,0.699-0.262c0.305-0.087,0.61,0,0.785,0.262c0.262,0.349,0.567,0.742,0.785,1.134
					c0.523,0.961,1.047,1.92,1.483,2.924c1.571,3.361,2.749,6.895,3.796,10.428c0.524,1.79,1.004,3.578,1.396,5.366
					c0.131,0.524,0.174,1.092,0.131,1.615c0,0.568-0.218,1.047-0.611,1.483c-0.218,0.217-0.436,0.392-0.654,0.61
					c-2.226,1.921-4.495,3.841-6.72,5.76c-0.392,0.35-0.741,0.655-1.265,0.784c-0.218,0.045-0.393,0.088-0.61,0
					c-0.305-0.086-0.524-0.391-0.437-0.697c0.043-0.219,0.131-0.393,0.218-0.566c0.131-0.262,0.306-0.524,0.48-0.742
					c0.394-0.523,0.524-1.134,0.479-1.789c-0.087-0.785-0.174-1.613-0.349-2.356c-0.479-2.138-0.96-4.276-1.44-6.414
					c-0.567-2.399-1.134-4.756-1.701-7.112c-0.087-0.349-0.175-0.742-0.305-1.091c-0.087-0.305-0.524-0.524-0.83-0.393
					c-0.305,0.13-0.654,0.218-0.916,0.393c-1.004,0.566-0.96,0.523-0.917,1.571c0.087,2.705,0.218,5.41,0.35,8.072
					c0,0.261,0.043,0.523,0.043,0.741c0.131,3.404,0.218,6.808,0.349,10.255C214.598,165.743,214.73,169.321,214.904,172.898
					C214.86,172.898,214.904,172.898,214.904,172.898z"/>
				<path fill="#FFFFFF" d="M249.068,168.1c0,9.207,0,18.369,0,27.576c0,0.61,0,1.178,0.044,1.788c0,0.917,0.305,1.747,0.829,2.487
					c0.654,0.961,1.266,1.877,1.92,2.836c0.087,0.133,0.175,0.262,0.261,0.438c0.174,0.261,0,0.567-0.349,0.61
					c-0.13,0-0.261,0.044-0.393,0c-0.785-0.043-1.614-0.087-2.399-0.175c-2.182-0.218-4.364-0.218-6.589,0
					c-2.269,0.219-4.538,0.566-6.719,1.048c-0.175,0.043-0.35,0.043-0.48,0.086c-0.305,0.046-0.523-0.043-0.567-0.174
					c-0.043-0.176,0.044-0.349,0.174-0.437c0.742-0.873,1.439-1.745,2.182-2.619c0.699-0.828,1.178-1.744,1.484-2.748
					c0.174-0.699,0.261-1.396,0.305-2.139c0.044-1.482,0.044-2.967,0.088-4.407c0.13-11.694,0.217-23.343,0.349-35.036
					c0.087-6.503,0.175-13.003,0.218-19.461c0-0.566,0-1.091,0-1.657c0-0.655-0.305-1.135-0.785-1.528
					c-0.218-0.174-0.479-0.348-0.742-0.523c-0.261-0.175-0.568-0.349-0.829-0.568c-0.611-0.436-0.698-1.047-0.175-1.614
					c0.262-0.304,0.524-0.567,0.83-0.786c0.828-0.698,1.701-1.396,2.53-2.093c1.746-1.397,3.491-2.792,5.236-4.189
					c0.786-0.654,1.57-1.309,2.312-1.963c0.087-0.088,0.175-0.175,0.306-0.262c0.218-0.131,0.392-0.392,0.654-0.261
					c0.349,0.13,0.261,0.479,0.305,0.742c0.044,0.393,0,0.742,0,1.135c0,1.876,0,3.708,0,5.585c0,0.393,0,0.742,0.044,1.135
					c0,0.305,0.261,0.48,0.523,0.305c0.393-0.261,0.742-0.523,1.135-0.829c1.004-0.828,2.051-1.658,3.055-2.443
					c0.524-0.437,1.047-0.873,1.571-1.266c0.261-0.218,0.567-0.393,0.873-0.523c0.305-0.175,0.742-0.044,0.873,0.261
					c0.262,0.437,0.48,0.873,0.655,1.353c0.785,2.007,1.571,4.014,2.356,6.021c1.178,3.097,2.4,6.196,3.578,9.338
					c0.174,0.479,0.349,0.959,0.479,1.439c0.087,0.305,0.087,0.655,0.043,1.004c-0.087,0.393-0.218,0.742-0.479,1.003
					c-0.262,0.219-0.479,0.48-0.742,0.699c-2.356,2.052-4.712,4.101-7.068,6.152c-0.262,0.219-0.524,0.437-0.786,0.611
					c-0.131,0.087-0.305,0.173-0.436,0.218c-0.35,0.13-0.654,0.086-0.96-0.175c-0.218-0.218-0.306-0.611-0.218-0.916
					c0.044-0.131,0.087-0.263,0.131-0.35c1.222-1.789,1.309-3.795,1.135-5.846c-0.131-1.833-0.568-3.579-1.004-5.324
					c-0.349-1.482-0.742-2.923-1.266-4.363c-0.174-0.479-0.392-0.917-0.654-1.354c-0.262-0.393-0.742-0.523-1.222-0.349
					c-0.394,0.174-0.698,0.437-0.96,0.829c-0.305,0.524-0.523,1.091-0.567,1.658c-0.043,0.699-0.131,1.439-0.131,2.139
					c0,5.628,0,11.213-0.043,16.841C249.025,160.683,249.025,164.391,249.068,168.1C249.025,168.1,249.025,168.1,249.068,168.1z"/>
			</g>
			<g>
				<path fill="#FFFFFF" d="M537.742,221.855h1.921c0,0,0.042,0.437,0.042,0.525c-0.042-0.264-0.174-0.394-0.348-0.394
					s-0.523,0-0.523,0s0,2.007,0,2.093c0,0.087,0.131,0.263,0.35,0.263c-0.35,0-0.742,0-0.96,0c0.218,0,0.304-0.13,0.304-0.218
					s0-2.008,0-2.138c-0.262,0-0.436,0-0.567,0c-0.13,0-0.261,0.175-0.304,0.394C537.699,222.161,537.699,221.985,537.742,221.855z"
					/>
				<path fill="#FFFFFF" d="M540.055,221.899h0.611l0.96,1.964l0.96-1.964h0.612c0,0-0.35,0-0.35,0.175s0,1.92,0,2.051
					s0.304,0.176,0.304,0.176h-0.914c0,0,0.305-0.045,0.305-0.219c0-0.217,0-1.658,0-1.877c-0.133,0.264-1.004,2.051-1.004,2.051
					l-1.004-2.094c0,0,0,1.877,0,1.963c0,0.131,0.306,0.176,0.306,0.176h-0.786c0,0,0.307-0.045,0.307-0.176
					c0-0.129,0-1.833,0-2.051C540.361,221.899,540.1,221.899,540.055,221.899z"/>
			</g>
		</g>
	</g>
</g>
</svg>
